<svg id="Layer_1" data-name="Layer 1" xmlns="http://www.w3.org/2000/svg" xmlns:xlink="http://www.w3.org/1999/xlink" viewBox="0 0 349 349"><defs><style>.cls-1{fill:url(#radial-gradient);}</style><radialGradient id="radial-gradient" cx="352.46" cy="-31.71" r="377.98" gradientUnits="userSpaceOnUse"><stop offset="0" stop-color="#fffbcc"/><stop offset="0.15" stop-color="#fbf2bb"/><stop offset="0.43" stop-color="#f0d98e"/><stop offset="0.47" stop-color="#eed688"/><stop offset="0.75" stop-color="#ebbb10"/><stop offset="1" stop-color="#c3922e"/></radialGradient></defs><ellipse cx="172.5" cy="174.63" rx="172" ry="164.5"/><polygon class="cls-1" points="34.2 120 169.98 120 194.6 162.85 169.98 203.8 159.33 203.8 196.49 265.61 175.26 300.88 119.14 202.66 85.77 204.18 66.05 169.67 140.37 170.05 147.2 161.71 140.37 152.99 54.29 152.99 34.2 120"/><polygon class="cls-1" points="189.67 120 314.81 120 295.09 153.37 209.39 153.37 189.67 120"/><polygon class="cls-1" points="186.25 214.42 208.25 170.05 285.61 170.05 265.89 203.8 229.48 203.8 206.35 249.3 186.25 214.42"/><path class="cls-1" d="M750,629.87c-96.22,0-174.5-78.28-174.5-174.5s78.28-174.5,174.5-174.5,174.5,78.28,174.5,174.5S846.22,629.87,750,629.87Zm0-339c-90.71,0-164.5,73.8-164.5,164.5s73.79,164.5,164.5,164.5,164.5-73.79,164.5-164.5S840.71,290.87,750,290.87Z" transform="translate(-575.5 -280.87)"/></svg>