<svg id="Layer_1" data-name="Layer 1" xmlns="http://www.w3.org/2000/svg" xmlns:xlink="http://www.w3.org/1999/xlink" viewBox="0 0 688.47 438.25"><defs><style>.cls-1{fill:url(#radial-gradient);}.cls-2{fill:url(#radial-gradient-13);}</style><radialGradient id="radial-gradient" cx="1354.2" cy="485.32" r="776.75" gradientUnits="userSpaceOnUse"><stop offset="0" stop-color="#fffbcc"/><stop offset="0.15" stop-color="#fbf2bb"/><stop offset="0.43" stop-color="#f0d98e"/><stop offset="0.47" stop-color="#eed688"/><stop offset="0.75" stop-color="#ebbb10"/><stop offset="1" stop-color="#c3922e"/></radialGradient><radialGradient id="radial-gradient-13" cx="522.2" cy="-31.71" r="377.98" xlink:href="#radial-gradient"/></defs><ellipse cx="342.24" cy="174.63" rx="172" ry="164.5"/><path class="cls-1" d="M453.25,717.9h-12L425.6,700h-9.73V717.9H405.76V664.22c8.5,0,17,.07,25.51.07,12.63.08,19.29,8.5,19.29,17.77,0,7.35-3.36,14.78-13.55,16.85l16.24,18.3Zm-37.38-44.19v17.16h15.4c6.43,0,9.19-4.29,9.19-8.58s-2.84-8.58-9.19-8.58Z" transform="translate(-405.76 -280.87)"/><path class="cls-1" d="M504.63,707.79h-28L472,717.9H461.06l24-53.61h11l24,53.61h-11Zm-14-32.24-10,22.82h19.91Z" transform="translate(-405.76 -280.87)"/><path class="cls-1" d="M574.86,695c0,13.86-8.81,24-23.59,24-13.71,0-23.51-8.19-23.51-23.35h10c0,9.19,4.44,13.86,13.55,13.86s13.48-6.36,13.48-14.48V673.71H548.59v-9.42h26.27Z" transform="translate(-405.76 -280.87)"/><path class="cls-1" d="M618.2,717.9V664.37h38.52v9.73H628.31v14.62h26.88v9.35H628.31V717.9Z" transform="translate(-405.76 -280.87)"/><path class="cls-1" d="M673.72,717.9V664.29h10V717.9Z" transform="translate(-405.76 -280.87)"/><path class="cls-1" d="M737.67,664.22h10.11V717.9H741.5V718l-28.18-36.23V717.9H703.21V664.29h8.19l26.27,33.24Z" transform="translate(-405.76 -280.87)"/><path class="cls-1" d="M804.3,707.79h-28l-4.6,10.11H760.72l24-53.61h11l24.05,53.61h-11Zm-14-32.24-9.95,22.82h19.91Z" transform="translate(-405.76 -280.87)"/><path class="cls-1" d="M868.86,664.22H879V717.9h-6.27V718L844.5,681.75V717.9H834.39V664.29h8.2l26.27,33.24Z" transform="translate(-405.76 -280.87)"/><path class="cls-1" d="M944.67,711.16a28.23,28.23,0,0,1-20.37,8c-19.91,0-28.33-13.71-28.41-27.65s9-28.26,28.41-28.26a27.63,27.63,0,0,1,19.68,8.2l-6.74,6.51a18.4,18.4,0,0,0-12.94-5.06c-12.94,0-18.53,9.65-18.45,18.61s5.2,18.15,18.45,18.15a19.71,19.71,0,0,0,13.48-5.44Z" transform="translate(-405.76 -280.87)"/><path class="cls-1" d="M959.68,717.9V664.29h10V717.9Z" transform="translate(-405.76 -280.87)"/><path class="cls-1" d="M1026.46,707.79h-28l-4.59,10.11h-11l24-53.61h11l24,53.61h-11Zm-14-32.24-10,22.82h19.91Z" transform="translate(-405.76 -280.87)"/><path class="cls-1" d="M1066.67,664.29v44.27h27.57v9.34h-37.68V664.29Z" transform="translate(-405.76 -280.87)"/><polygon class="cls-2" points="203.93 120 339.72 120 364.33 162.85 339.72 203.8 329.07 203.8 366.23 265.61 345 300.88 288.87 202.66 255.5 204.18 235.78 169.67 310.11 170.05 316.93 161.71 310.11 152.99 224.03 152.99 203.93 120"/><polygon class="cls-2" points="359.4 120 484.54 120 464.82 153.37 379.12 153.37 359.4 120"/><polygon class="cls-2" points="355.99 214.42 377.99 170.05 455.34 170.05 435.63 203.8 399.22 203.8 376.09 249.3 355.99 214.42"/><path class="cls-2" d="M750,629.87c-96.22,0-174.5-78.28-174.5-174.5s78.28-174.5,174.5-174.5,174.5,78.28,174.5,174.5S846.22,629.87,750,629.87Zm0-339c-90.71,0-164.5,73.8-164.5,164.5s73.79,164.5,164.5,164.5,164.5-73.79,164.5-164.5S840.71,290.87,750,290.87Z" transform="translate(-405.76 -280.87)"/></svg>