<?xml version="1.0" encoding="UTF-8" standalone="no"?>
<svg
   xmlns:dc="http://purl.org/dc/elements/1.1/"
   xmlns:cc="http://creativecommons.org/ns#"
   xmlns:rdf="http://www.w3.org/1999/02/22-rdf-syntax-ns#"
   xmlns:svg="http://www.w3.org/2000/svg"
   xmlns="http://www.w3.org/2000/svg"
   xmlns:sodipodi="http://sodipodi.sourceforge.net/DTD/sodipodi-0.dtd"
   xmlns:inkscape="http://www.inkscape.org/namespaces/inkscape"
   version="1.1"
   id="svg2"
   xml:space="preserve"
   width="917.96002"
   height="584.33331"
   viewBox="0 0 917.96002 584.33331"
   sodipodi:docname="logo.eps"><metadata
     id="metadata8"><rdf:RDF><cc:Work
         rdf:about=""><dc:format>image/svg+xml</dc:format><dc:type
           rdf:resource="http://purl.org/dc/dcmitype/StillImage" /></cc:Work></rdf:RDF></metadata><defs
     id="defs6"><clipPath
       clipPathUnits="userSpaceOnUse"
       id="clipPath20"><path
         d="M 101.094,454.148 V 282.602 h 153.933 c 64.328,0 91.899,42.886 91.899,85.769 0,42.891 -28.332,85.777 -91.899,85.777 z M 474.824,12.25 H 354.59 L 198.359,191.469 H 101.094 V 12.25 H 0 v 536.859 c 85.0117,0 170.02,-0.757 255.027,-0.757 126.36,-0.774 192.993,-85 192.993,-177.68 0,-73.524 -33.696,-147.813 -135.559,-168.481 L 474.824,19.1484 Z"
         id="path18" /></clipPath><radialGradient
       fx="0"
       fy="0"
       cx="0"
       cy="0"
       r="1"
       gradientUnits="userSpaceOnUse"
       gradientTransform="matrix(-7142.4,-3052.8,-3052.8,7142.4,9484.37,2338.08)"
       spreadMethod="pad"
       id="radialGradient30"><stop
         style="stop-opacity:1;stop-color:#fafaba"
         offset="0"
         id="stop22" /><stop
         style="stop-opacity:1;stop-color:#e6d170"
         offset="0.471843"
         id="stop24" /><stop
         style="stop-opacity:1;stop-color:#e4b51c"
         offset="0.74698"
         id="stop26" /><stop
         style="stop-opacity:1;stop-color:#b78829"
         offset="1"
         id="stop28" /></radialGradient><clipPath
       clipPathUnits="userSpaceOnUse"
       id="clipPath40"><path
         d="M 848.535,435.77 748.977,207.551 H 948.098 Z M 988.684,113.352 H 708.391 L 662.441,12.25 H 552.93 L 793.398,548.352 H 903.684 L 1144.15,12.25 h -110.28 z"
         id="path38" /></clipPath><radialGradient
       fx="0"
       fy="0"
       cx="0"
       cy="0"
       r="1"
       gradientUnits="userSpaceOnUse"
       gradientTransform="matrix(-7142.4,-3052.8,-3052.8,7142.4,9484.37,2338.08)"
       spreadMethod="pad"
       id="radialGradient50"><stop
         style="stop-opacity:1;stop-color:#fafaba"
         offset="0"
         id="stop42" /><stop
         style="stop-opacity:1;stop-color:#e6d170"
         offset="0.471843"
         id="stop44" /><stop
         style="stop-opacity:1;stop-color:#e4b51c"
         offset="0.74698"
         id="stop46" /><stop
         style="stop-opacity:1;stop-color:#b78829"
         offset="1"
         id="stop48" /></radialGradient><clipPath
       clipPathUnits="userSpaceOnUse"
       id="clipPath60"><path
         d="m 1690.95,241.238 c 0,-138.617 -88.07,-239.70675 -235.88,-239.70675 -137.08,0 -235.11,81.94925 -235.11,233.58975 h 99.56 c 0,-91.91 44.42,-138.6093 135.55,-138.6093 91.9,0 134.79,63.5473 134.79,144.7263 v 212.91 h -161.59 v 94.204 c 87.31,0 174.61,0 262.68,0 z"
         id="path58" /></clipPath><radialGradient
       fx="0"
       fy="0"
       cx="0"
       cy="0"
       r="1"
       gradientUnits="userSpaceOnUse"
       gradientTransform="matrix(-7142.4,-3052.8,-3052.8,7142.4,9484.37,2338.08)"
       spreadMethod="pad"
       id="radialGradient70"><stop
         style="stop-opacity:1;stop-color:#fafaba"
         offset="0"
         id="stop62" /><stop
         style="stop-opacity:1;stop-color:#e6d170"
         offset="0.471843"
         id="stop64" /><stop
         style="stop-opacity:1;stop-color:#e4b51c"
         offset="0.74698"
         id="stop66" /><stop
         style="stop-opacity:1;stop-color:#b78829"
         offset="1"
         id="stop68" /></radialGradient><clipPath
       clipPathUnits="userSpaceOnUse"
       id="clipPath80"><path
         d="m 2124.39,12.25 v 535.328 h 385.22 V 450.32 H 2225.48 V 304.051 h 268.81 V 210.609 H 2225.48 V 12.25 Z"
         id="path78" /></clipPath><radialGradient
       fx="0"
       fy="0"
       cx="0"
       cy="0"
       r="1"
       gradientUnits="userSpaceOnUse"
       gradientTransform="matrix(-7142.4,-3052.8,-3052.8,7142.4,9484.37,2338.08)"
       spreadMethod="pad"
       id="radialGradient90"><stop
         style="stop-opacity:1;stop-color:#fafaba"
         offset="0"
         id="stop82" /><stop
         style="stop-opacity:1;stop-color:#e6d170"
         offset="0.471843"
         id="stop84" /><stop
         style="stop-opacity:1;stop-color:#e4b51c"
         offset="0.74698"
         id="stop86" /><stop
         style="stop-opacity:1;stop-color:#b78829"
         offset="1"
         id="stop88" /></radialGradient><clipPath
       clipPathUnits="userSpaceOnUse"
       id="clipPath100"><path
         d="m 2679.61,12.25 v 536.102 h 100.32 V 12.25 Z"
         id="path98" /></clipPath><radialGradient
       fx="0"
       fy="0"
       cx="0"
       cy="0"
       r="1"
       gradientUnits="userSpaceOnUse"
       gradientTransform="matrix(-7142.4,-3052.8,-3052.8,7142.4,9484.37,2338.08)"
       spreadMethod="pad"
       id="radialGradient110"><stop
         style="stop-opacity:1;stop-color:#fafaba"
         offset="0"
         id="stop102" /><stop
         style="stop-opacity:1;stop-color:#e6d170"
         offset="0.471843"
         id="stop104" /><stop
         style="stop-opacity:1;stop-color:#e4b51c"
         offset="0.74698"
         id="stop106" /><stop
         style="stop-opacity:1;stop-color:#b78829"
         offset="1"
         id="stop108" /></radialGradient><clipPath
       clipPathUnits="userSpaceOnUse"
       id="clipPath120"><path
         d="m 3319.08,549.109 h 101.09 V 12.25 h -62.8 V 11.4883 L 3075.55,373.738 V 12.25 h -101.1 v 536.102 h 81.95 l 262.68,-332.391 z"
         id="path118" /></clipPath><radialGradient
       fx="0"
       fy="0"
       cx="0"
       cy="0"
       r="1"
       gradientUnits="userSpaceOnUse"
       gradientTransform="matrix(-7142.4,-3052.8,-3052.8,7142.4,9484.37,2338.08)"
       spreadMethod="pad"
       id="radialGradient130"><stop
         style="stop-opacity:1;stop-color:#fafaba"
         offset="0"
         id="stop122" /><stop
         style="stop-opacity:1;stop-color:#e6d170"
         offset="0.471843"
         id="stop124" /><stop
         style="stop-opacity:1;stop-color:#e4b51c"
         offset="0.74698"
         id="stop126" /><stop
         style="stop-opacity:1;stop-color:#b78829"
         offset="1"
         id="stop128" /></radialGradient><clipPath
       clipPathUnits="userSpaceOnUse"
       id="clipPath140"><path
         d="m 3845.2,435.77 -99.55,-228.219 h 199.12 z m 140.16,-322.418 h -280.3 L 3659.11,12.25 h -109.52 l 240.47,536.102 h 110.3 L 4140.83,12.25 h -110.3 z"
         id="path138" /></clipPath><radialGradient
       fx="0"
       fy="0"
       cx="0"
       cy="0"
       r="1"
       gradientUnits="userSpaceOnUse"
       gradientTransform="matrix(-7142.4,-3052.8,-3052.8,7142.4,9484.37,2338.08)"
       spreadMethod="pad"
       id="radialGradient150"><stop
         style="stop-opacity:1;stop-color:#fafaba"
         offset="0"
         id="stop142" /><stop
         style="stop-opacity:1;stop-color:#e6d170"
         offset="0.471843"
         id="stop144" /><stop
         style="stop-opacity:1;stop-color:#e4b51c"
         offset="0.74698"
         id="stop146" /><stop
         style="stop-opacity:1;stop-color:#b78829"
         offset="1"
         id="stop148" /></radialGradient><clipPath
       clipPathUnits="userSpaceOnUse"
       id="clipPath160"><path
         d="m 4630.92,549.109 h 101.1 V 12.25 h -62.8 V 11.4883 L 4387.39,373.738 V 12.25 h -101.1 v 536.102 h 81.96 l 262.67,-332.391 z"
         id="path158" /></clipPath><radialGradient
       fx="0"
       fy="0"
       cx="0"
       cy="0"
       r="1"
       gradientUnits="userSpaceOnUse"
       gradientTransform="matrix(-7142.4,-3052.8,-3052.8,7142.4,9484.37,2338.08)"
       spreadMethod="pad"
       id="radialGradient170"><stop
         style="stop-opacity:1;stop-color:#fafaba"
         offset="0"
         id="stop162" /><stop
         style="stop-opacity:1;stop-color:#e6d170"
         offset="0.471843"
         id="stop164" /><stop
         style="stop-opacity:1;stop-color:#e4b51c"
         offset="0.74698"
         id="stop166" /><stop
         style="stop-opacity:1;stop-color:#b78829"
         offset="1"
         id="stop168" /></radialGradient><clipPath
       clipPathUnits="userSpaceOnUse"
       id="clipPath180"><path
         d="M 5389.11,79.6484 C 5333.97,25.2813 5262.74,0.0117188 5185.4,0.0117188 c -199.13,0 -283.36,137.0902812 -284.15,276.4572812 -0.76,140.16 90.38,282.601 284.15,282.601 72.75,0 141.68,-27.582 196.81,-81.949 l -67.4,-65.101 c -35.22,34.468 -82.72,50.539 -129.41,50.539 -129.44,0 -185.34,-96.481 -184.57,-186.09 0.76,-88.828 52.07,-181.5002 184.57,-181.5002 46.69,0 99.55,19.1402 134.78,54.3712 z"
         id="path178" /></clipPath><radialGradient
       fx="0"
       fy="0"
       cx="0"
       cy="0"
       r="1"
       gradientUnits="userSpaceOnUse"
       gradientTransform="matrix(-7142.4,-3052.8,-3052.8,7142.4,9484.37,2338.08)"
       spreadMethod="pad"
       id="radialGradient190"><stop
         style="stop-opacity:1;stop-color:#fafaba"
         offset="0"
         id="stop182" /><stop
         style="stop-opacity:1;stop-color:#e6d170"
         offset="0.471843"
         id="stop184" /><stop
         style="stop-opacity:1;stop-color:#e4b51c"
         offset="0.74698"
         id="stop186" /><stop
         style="stop-opacity:1;stop-color:#b78829"
         offset="1"
         id="stop188" /></radialGradient><clipPath
       clipPathUnits="userSpaceOnUse"
       id="clipPath200"><path
         d="M 5539.18,12.25 V 548.352 H 5639.5 V 12.25 Z"
         id="path198" /></clipPath><radialGradient
       fx="0"
       fy="0"
       cx="0"
       cy="0"
       r="1"
       gradientUnits="userSpaceOnUse"
       gradientTransform="matrix(-7142.4,-3052.8,-3052.8,7142.4,9484.37,2338.08)"
       spreadMethod="pad"
       id="radialGradient210"><stop
         style="stop-opacity:1;stop-color:#fafaba"
         offset="0"
         id="stop202" /><stop
         style="stop-opacity:1;stop-color:#e6d170"
         offset="0.471843"
         id="stop204" /><stop
         style="stop-opacity:1;stop-color:#e4b51c"
         offset="0.74698"
         id="stop206" /><stop
         style="stop-opacity:1;stop-color:#b78829"
         offset="1"
         id="stop208" /></radialGradient><clipPath
       clipPathUnits="userSpaceOnUse"
       id="clipPath220"><path
         d="m 6066.84,435.77 -99.57,-228.219 h 199.12 z m 140.14,-322.418 h -280.3 L 5880.75,12.25 h -109.53 l 240.48,536.102 h 110.28 L 6362.45,12.25 h -110.28 z"
         id="path218" /></clipPath><radialGradient
       fx="0"
       fy="0"
       cx="0"
       cy="0"
       r="1"
       gradientUnits="userSpaceOnUse"
       gradientTransform="matrix(-7142.4,-3052.8,-3052.8,7142.4,9484.37,2338.08)"
       spreadMethod="pad"
       id="radialGradient230"><stop
         style="stop-opacity:1;stop-color:#fafaba"
         offset="0"
         id="stop222" /><stop
         style="stop-opacity:1;stop-color:#e6d170"
         offset="0.471843"
         id="stop224" /><stop
         style="stop-opacity:1;stop-color:#e4b51c"
         offset="0.74698"
         id="stop226" /><stop
         style="stop-opacity:1;stop-color:#b78829"
         offset="1"
         id="stop228" /></radialGradient><clipPath
       clipPathUnits="userSpaceOnUse"
       id="clipPath240"><path
         d="M 6609.03,548.352 V 105.691 h 275.7 V 12.25 h -376.78 v 536.102 z"
         id="path238" /></clipPath><radialGradient
       fx="0"
       fy="0"
       cx="0"
       cy="0"
       r="1"
       gradientUnits="userSpaceOnUse"
       gradientTransform="matrix(-7142.4,-3052.8,-3052.8,7142.4,9484.37,2338.08)"
       spreadMethod="pad"
       id="radialGradient250"><stop
         style="stop-opacity:1;stop-color:#fafaba"
         offset="0"
         id="stop242" /><stop
         style="stop-opacity:1;stop-color:#e6d170"
         offset="0.471843"
         id="stop244" /><stop
         style="stop-opacity:1;stop-color:#e4b51c"
         offset="0.74698"
         id="stop246" /><stop
         style="stop-opacity:1;stop-color:#b78829"
         offset="1"
         id="stop248" /></radialGradient><clipPath
       clipPathUnits="userSpaceOnUse"
       id="clipPath260"><path
         d="m 2039.32,3182.59 h 1357.86 l 246.16,-428.5 -246.16,-409.53 h -106.49 l 371.62,-618.11 -212.36,-352.65 -561.22,982.13 -333.7,-15.17 -197.18,345.08 743.23,-3.79 68.26,83.42 -68.26,87.22 h -860.79 z"
         id="path258" /></clipPath><radialGradient
       fx="0"
       fy="0"
       cx="0"
       cy="0"
       r="1"
       gradientUnits="userSpaceOnUse"
       gradientTransform="matrix(-2188.8,-3081.6,-3081.6,2188.8,5221.97,4699.68)"
       spreadMethod="pad"
       id="radialGradient270"><stop
         style="stop-opacity:1;stop-color:#fafaba"
         offset="0"
         id="stop262" /><stop
         style="stop-opacity:1;stop-color:#e6d170"
         offset="0.471843"
         id="stop264" /><stop
         style="stop-opacity:1;stop-color:#e4b51c"
         offset="0.74698"
         id="stop266" /><stop
         style="stop-opacity:1;stop-color:#b78829"
         offset="1"
         id="stop268" /></radialGradient><clipPath
       clipPathUnits="userSpaceOnUse"
       id="clipPath280"><path
         d="M 3594.05,3182.59 H 4845.42 L 4648.24,2848.9 h -857 z"
         id="path278" /></clipPath><radialGradient
       fx="0"
       fy="0"
       cx="0"
       cy="0"
       r="1"
       gradientUnits="userSpaceOnUse"
       gradientTransform="matrix(-2188.8,-3081.6,-3081.6,2188.8,5221.97,4699.68)"
       spreadMethod="pad"
       id="radialGradient290"><stop
         style="stop-opacity:1;stop-color:#fafaba"
         offset="0"
         id="stop282" /><stop
         style="stop-opacity:1;stop-color:#e6d170"
         offset="0.471843"
         id="stop284" /><stop
         style="stop-opacity:1;stop-color:#e4b51c"
         offset="0.74698"
         id="stop286" /><stop
         style="stop-opacity:1;stop-color:#b78829"
         offset="1"
         id="stop288" /></radialGradient><clipPath
       clipPathUnits="userSpaceOnUse"
       id="clipPath300"><path
         d="m 3559.92,2238.38 219.94,443.67 h 773.57 L 4356.25,2344.56 H 3992.21 L 3760.9,1889.51 Z"
         id="path298" /></clipPath><radialGradient
       fx="0"
       fy="0"
       cx="0"
       cy="0"
       r="1"
       gradientUnits="userSpaceOnUse"
       gradientTransform="matrix(-2188.8,-3081.6,-3081.6,2188.8,5221.97,4699.68)"
       spreadMethod="pad"
       id="radialGradient310"><stop
         style="stop-opacity:1;stop-color:#fafaba"
         offset="0"
         id="stop302" /><stop
         style="stop-opacity:1;stop-color:#e6d170"
         offset="0.471843"
         id="stop304" /><stop
         style="stop-opacity:1;stop-color:#e4b51c"
         offset="0.74698"
         id="stop306" /><stop
         style="stop-opacity:1;stop-color:#b78829"
         offset="1"
         id="stop308" /></radialGradient><clipPath
       clipPathUnits="userSpaceOnUse"
       id="clipPath320"><path
         d="m 3442.37,4282.55 c -907.06,0 -1645,-737.94 -1645,-1645 0,-907.06 737.94,-1644.999 1645,-1644.999 907.05,0 1645,737.939 1645,1644.999 0,907.06 -737.95,1645 -1645,1645 z m 0,-3389.999 c -962.2,0 -1745,782.809 -1745,1744.999 0,962.2 782.8,1745 1745,1745 962.2,0 1745,-782.8 1745,-1745 0,-962.19 -782.8,-1744.999 -1745,-1744.999 z"
         id="path318" /></clipPath><radialGradient
       fx="0"
       fy="0"
       cx="0"
       cy="0"
       r="1"
       gradientUnits="userSpaceOnUse"
       gradientTransform="matrix(-2188.8,-3081.6,-3081.6,2188.8,5221.97,4699.68)"
       spreadMethod="pad"
       id="radialGradient330"><stop
         style="stop-opacity:1;stop-color:#fafaba"
         offset="0"
         id="stop322" /><stop
         style="stop-opacity:1;stop-color:#e6d170"
         offset="0.471843"
         id="stop324" /><stop
         style="stop-opacity:1;stop-color:#e4b51c"
         offset="0.74698"
         id="stop326" /><stop
         style="stop-opacity:1;stop-color:#b78829"
         offset="1"
         id="stop328" /></radialGradient></defs><sodipodi:namedview
     pagecolor="#ffffff"
     bordercolor="#666666"
     borderopacity="1"
     objecttolerance="10"
     gridtolerance="10"
     guidetolerance="10"
     inkscape:pageopacity="0"
     inkscape:pageshadow="2"
     inkscape:window-width="640"
     inkscape:window-height="480"
     id="namedview4" /><g
     id="g10"
     inkscape:groupmode="layer"
     inkscape:label="ink_ext_XXXXXX"
     transform="matrix(1.3333333,0,0,-1.3333333,0,584.33333)"><g
       id="g12"
       transform="scale(0.1)"><g
         id="g14"><g
           id="g16"
           clip-path="url(#clipPath20)"><path
             d="M 101.094,454.148 V 282.602 h 153.933 c 64.328,0 91.899,42.886 91.899,85.769 0,42.891 -28.332,85.777 -91.899,85.777 z M 474.824,12.25 H 354.59 L 198.359,191.469 H 101.094 V 12.25 H 0 v 536.859 c 85.0117,0 170.02,-0.757 255.027,-0.757 126.36,-0.774 192.993,-85 192.993,-177.68 0,-73.524 -33.696,-147.813 -135.559,-168.481 L 474.824,19.1484 V 12.25"
             style="fill:url(#radialGradient30);fill-opacity:1;fill-rule:nonzero;stroke:none"
             id="path32" /></g></g><g
         id="g34"><g
           id="g36"
           clip-path="url(#clipPath40)"><path
             d="M 848.535,435.77 748.977,207.551 H 948.098 Z M 988.684,113.352 H 708.391 L 662.441,12.25 H 552.93 L 793.398,548.352 H 903.684 L 1144.15,12.25 h -110.28 l -45.186,101.102"
             style="fill:url(#radialGradient50);fill-opacity:1;fill-rule:nonzero;stroke:none"
             id="path52" /></g></g><g
         id="g54"><g
           id="g56"
           clip-path="url(#clipPath60)"><path
             d="m 1690.95,241.238 c 0,-138.617 -88.07,-239.70675 -235.88,-239.70675 -137.08,0 -235.11,81.94925 -235.11,233.58975 h 99.56 c 0,-91.91 44.42,-138.6093 135.55,-138.6093 91.9,0 134.79,63.5473 134.79,144.7263 v 212.91 h -161.59 v 94.204 c 87.31,0 174.61,0 262.68,0 V 241.238"
             style="fill:url(#radialGradient70);fill-opacity:1;fill-rule:nonzero;stroke:none"
             id="path72" /></g></g><g
         id="g74"><g
           id="g76"
           clip-path="url(#clipPath80)"><path
             d="m 2124.39,12.25 v 535.328 h 385.22 V 450.32 H 2225.48 V 304.051 h 268.81 V 210.609 H 2225.48 V 12.25 h -101.09"
             style="fill:url(#radialGradient90);fill-opacity:1;fill-rule:nonzero;stroke:none"
             id="path92" /></g></g><g
         id="g94"><g
           id="g96"
           clip-path="url(#clipPath100)"><path
             d="m 2679.61,12.25 v 536.102 h 100.32 V 12.25 h -100.32"
             style="fill:url(#radialGradient110);fill-opacity:1;fill-rule:nonzero;stroke:none"
             id="path112" /></g></g><g
         id="g114"><g
           id="g116"
           clip-path="url(#clipPath120)"><path
             d="m 3319.08,549.109 h 101.09 V 12.25 h -62.8 V 11.4883 L 3075.55,373.738 V 12.25 h -101.1 v 536.102 h 81.95 l 262.68,-332.391 v 333.148"
             style="fill:url(#radialGradient130);fill-opacity:1;fill-rule:nonzero;stroke:none"
             id="path132" /></g></g><g
         id="g134"><g
           id="g136"
           clip-path="url(#clipPath140)"><path
             d="m 3845.2,435.77 -99.55,-228.219 h 199.12 z m 140.16,-322.418 h -280.3 L 3659.11,12.25 h -109.52 l 240.47,536.102 h 110.3 L 4140.83,12.25 h -110.3 l -45.17,101.102"
             style="fill:url(#radialGradient150);fill-opacity:1;fill-rule:nonzero;stroke:none"
             id="path152" /></g></g><g
         id="g154"><g
           id="g156"
           clip-path="url(#clipPath160)"><path
             d="m 4630.92,549.109 h 101.1 V 12.25 h -62.8 V 11.4883 L 4387.39,373.738 V 12.25 h -101.1 v 536.102 h 81.96 l 262.67,-332.391 v 333.148"
             style="fill:url(#radialGradient170);fill-opacity:1;fill-rule:nonzero;stroke:none"
             id="path172" /></g></g><g
         id="g174"><g
           id="g176"
           clip-path="url(#clipPath180)"><path
             d="M 5389.11,79.6484 C 5333.97,25.2813 5262.74,0.0117188 5185.4,0.0117188 c -199.13,0 -283.36,137.0902812 -284.15,276.4572812 -0.76,140.16 90.38,282.601 284.15,282.601 72.75,0 141.68,-27.582 196.81,-81.949 l -67.4,-65.101 c -35.22,34.468 -82.72,50.539 -129.41,50.539 -129.44,0 -185.34,-96.481 -184.57,-186.09 0.76,-88.828 52.07,-181.5002 184.57,-181.5002 46.69,0 99.55,19.1402 134.78,54.3712 l 68.93,-69.6916"
             style="fill:url(#radialGradient190);fill-opacity:1;fill-rule:nonzero;stroke:none"
             id="path192" /></g></g><g
         id="g194"><g
           id="g196"
           clip-path="url(#clipPath200)"><path
             d="M 5539.18,12.25 V 548.352 H 5639.5 V 12.25 h -100.32"
             style="fill:url(#radialGradient210);fill-opacity:1;fill-rule:nonzero;stroke:none"
             id="path212" /></g></g><g
         id="g214"><g
           id="g216"
           clip-path="url(#clipPath220)"><path
             d="m 6066.84,435.77 -99.57,-228.219 h 199.12 z m 140.14,-322.418 h -280.3 L 5880.75,12.25 h -109.53 l 240.48,536.102 h 110.28 L 6362.45,12.25 h -110.28 l -45.19,101.102"
             style="fill:url(#radialGradient230);fill-opacity:1;fill-rule:nonzero;stroke:none"
             id="path232" /></g></g><g
         id="g234"><g
           id="g236"
           clip-path="url(#clipPath240)"><path
             d="M 6609.03,548.352 V 105.691 h 275.7 V 12.25 h -376.78 v 536.102 h 101.08"
             style="fill:url(#radialGradient250);fill-opacity:1;fill-rule:nonzero;stroke:none"
             id="path252" /></g></g><g
         id="g254"><g
           id="g256"
           clip-path="url(#clipPath260)"><path
             d="m 2039.32,3182.59 h 1357.86 l 246.16,-428.5 -246.16,-409.53 h -106.49 l 371.62,-618.11 -212.36,-352.65 -561.22,982.13 -333.7,-15.17 -197.18,345.08 743.23,-3.79 68.26,83.42 -68.26,87.22 h -860.79 l -200.97,329.9"
             style="fill:url(#radialGradient270);fill-opacity:1;fill-rule:nonzero;stroke:none"
             id="path272" /></g></g><g
         id="g274"><g
           id="g276"
           clip-path="url(#clipPath280)"><path
             d="M 3594.05,3182.59 H 4845.42 L 4648.24,2848.9 h -857 l -197.19,333.69"
             style="fill:url(#radialGradient290);fill-opacity:1;fill-rule:nonzero;stroke:none"
             id="path292" /></g></g><g
         id="g294"><g
           id="g296"
           clip-path="url(#clipPath300)"><path
             d="m 3559.92,2238.38 219.94,443.67 h 773.57 l -197.18,-337.49 h -364.04 l -231.31,-455.05 -200.98,348.87"
             style="fill:url(#radialGradient310);fill-opacity:1;fill-rule:nonzero;stroke:none"
             id="path312" /></g></g><g
         id="g314"><g
           id="g316"
           clip-path="url(#clipPath320)"><path
             d="m 3442.37,4282.55 c -907.06,0 -1645,-737.94 -1645,-1645 0,-907.06 737.94,-1644.999 1645,-1644.999 907.05,0 1645,737.939 1645,1644.999 0,907.06 -737.95,1645 -1645,1645 z m 0,-3389.999 c -962.2,0 -1745,782.809 -1745,1744.999 0,962.2 782.8,1745 1745,1745 962.2,0 1745,-782.8 1745,-1745 0,-962.19 -782.8,-1744.999 -1745,-1744.999"
             style="fill:url(#radialGradient330);fill-opacity:1;fill-rule:nonzero;stroke:none"
             id="path332" /></g></g></g></g></svg>
