<svg id="Layer_1" data-name="Layer 1" xmlns="http://www.w3.org/2000/svg" xmlns:xlink="http://www.w3.org/1999/xlink" viewBox="0 0 1814.5 349"><defs><style>.cls-1{fill:url(#radial-gradient);}.cls-2{fill:url(#radial-gradient-13);}</style><radialGradient id="radial-gradient" cx="2421.85" cy="81.29" r="1527.87" gradientUnits="userSpaceOnUse"><stop offset="0" stop-color="#fffbcc"/><stop offset="0.15" stop-color="#fbf2bb"/><stop offset="0.43" stop-color="#f0d98e"/><stop offset="0.47" stop-color="#eed688"/><stop offset="0.75" stop-color="#ebbb10"/><stop offset="1" stop-color="#c3922e"/></radialGradient><radialGradient id="radial-gradient-13" cx="352.46" cy="-31.71" r="377.98" xlink:href="#radial-gradient"/></defs><path class="cls-1" d="M649.66,538.78H626l-30.73-35.25H576.15v35.25H556.26V433.18c16.72,0,33.45.15,50.17.15,24.85.15,38,16.72,38,34.95,0,14.46-6.63,29.07-26.67,33.14l31.94,36Zm-73.51-86.92V485.6h30.28c12.65,0,18.07-8.43,18.07-16.87s-5.57-16.87-18.07-16.87Z" transform="translate(-96 -315.87)"/><path class="cls-1" d="M750.74,518.89H695.6l-9,19.89H665l47.3-105.45H734l47.3,105.45H759.63Zm-27.57-63.42-19.58,44.89h39.16Z" transform="translate(-96 -315.87)"/><path class="cls-1" d="M888.87,493.74c0,27.26-17.32,47.15-46.39,47.15-27,0-46.25-16.12-46.25-45.95h19.58c0,18.08,8.74,27.27,26.67,27.27S869,509.7,869,493.74V451.86H837.21V433.33h51.66Z" transform="translate(-96 -315.87)"/><path class="cls-1" d="M974.13,538.78V433.48h75.78v19.13H994v28.77h52.87v18.38H994v39Z" transform="translate(-96 -315.87)"/><path class="cls-1" d="M1083.35,538.78V433.33h19.73V538.78Z" transform="translate(-96 -315.87)"/><path class="cls-1" d="M1209.13,433.18H1229v105.6h-12.35v.15l-55.43-71.25v71.1h-19.89V433.33h16.12l51.67,65.38Z" transform="translate(-96 -315.87)"/><path class="cls-1" d="M1340.19,518.89h-55.14l-9,19.89h-21.55l47.3-105.45h21.7l47.3,105.45h-21.69Zm-27.57-63.42L1293,500.36h39.16Z" transform="translate(-96 -315.87)"/><path class="cls-1" d="M1467.17,433.18h19.89v105.6H1474.7v.15l-55.43-71.25v71.1h-19.89V433.33h16.12l51.67,65.38Z" transform="translate(-96 -315.87)"/><path class="cls-1" d="M1616.31,525.52c-10.85,10.7-24.86,15.67-40.07,15.67-39.17,0-55.74-27-55.89-54.38-.15-27.57,17.77-55.59,55.89-55.59A54.37,54.37,0,0,1,1615,447.34l-13.26,12.8a36.24,36.24,0,0,0-25.45-9.94c-25.46,0-36.46,19-36.31,36.61.15,17.47,10.25,35.7,36.31,35.7,9.18,0,19.58-3.77,26.51-10.7Z" transform="translate(-96 -315.87)"/><path class="cls-1" d="M1645.83,538.78V433.33h19.73V538.78Z" transform="translate(-96 -315.87)"/><path class="cls-1" d="M1777.18,518.89h-55.13l-9,19.89h-21.54l47.3-105.45h21.7l47.3,105.45h-21.7Zm-27.56-63.42L1730,500.36h39.17Z" transform="translate(-96 -315.87)"/><path class="cls-1" d="M1856.27,433.33V520.4h54.23v18.38h-74.11V433.33Z" transform="translate(-96 -315.87)"/><polygon class="cls-2" points="34.2 120 169.98 120 194.6 162.85 169.98 203.8 159.33 203.8 196.49 265.61 175.26 300.88 119.14 202.66 85.77 204.18 66.05 169.67 140.37 170.05 147.2 161.71 140.37 152.99 54.29 152.99 34.2 120"/><polygon class="cls-2" points="189.67 120 314.81 120 295.09 153.37 209.39 153.37 189.67 120"/><polygon class="cls-2" points="186.25 214.42 208.25 170.05 285.61 170.05 265.89 203.8 229.48 203.8 206.35 249.3 186.25 214.42"/><path class="cls-2" d="M270.5,664.87c-96.22,0-174.5-78.28-174.5-174.5s78.28-174.5,174.5-174.5S445,394.15,445,490.37,366.72,664.87,270.5,664.87Zm0-339c-90.71,0-164.5,73.8-164.5,164.5s73.79,164.5,164.5,164.5S435,581.08,435,490.37,361.21,325.87,270.5,325.87Z" transform="translate(-96 -315.87)"/></svg>