<?xml version="1.0" standalone="no"?>
<!DOCTYPE svg PUBLIC "-//W3C//DTD SVG 20010904//EN"
 "http://www.w3.org/TR/2001/REC-SVG-20010904/DTD/svg10.dtd">
<svg version="1.0" xmlns="http://www.w3.org/2000/svg"
 width="700.000000pt" height="700.000000pt" viewBox="0 0 700.000000 700.000000"
 preserveAspectRatio="xMidYMid meet">
<metadata>
Created by potrace 1.14, written by Peter Selinger 2001-2017
</metadata>
<g transform="translate(0.000000,700.000000) scale(0.100000,-0.100000)"
fill="#000000" stroke="none">
<path d="M3350 6793 c-691 -25 -1356 -275 -1915 -720 -141 -111 -396 -366
-509 -508 -1055 -1323 -951 -3202 243 -4396 831 -831 1991 -1150 3149 -864
586 144 1129 461 1559 909 1231 1280 1231 3292 0 4572 -500 520 -1123 847
-1837 963 -203 33 -495 51 -690 44z m297 -2613 c127 -223 237 -415 244 -427
10 -19 -15 -65 -236 -432 l-248 -410 -104 -3 -103 -3 370 -616 370 -617 -212
-351 c-181 -300 -213 -348 -223 -333 -6 9 -260 453 -564 985 l-553 968 -31 -5
c-18 -3 -166 -11 -330 -17 -254 -10 -300 -10 -311 2 -11 12 -386 664 -386 671
0 2 334 2 743 0 l743 -3 60 73 c33 40 63 78 67 85 5 8 -18 46 -59 98 l-67 85
-863 0 -862 0 -188 308 c-103 169 -194 317 -202 330 l-14 22 1363 -2 1363 -3
233 -405z m2643 373 c-12 -21 -101 -172 -197 -335 l-176 -298 -857 0 -858 0
-193 328 c-106 180 -194 330 -196 335 -2 4 559 7 1247 7 l1252 0 -22 -37z
m-600 -1030 c-22 -38 -111 -189 -198 -338 l-157 -270 -368 -5 -369 -5 -226
-447 c-125 -246 -230 -448 -233 -448 -6 0 -392 666 -397 686 -2 6 96 210 217
453 l221 441 775 0 774 0 -39 -67z"/>
</g>
</svg>
