<?xml version="1.0" standalone="no"?>
<!DOCTYPE svg PUBLIC "-//W3C//DTD SVG 20010904//EN"
 "http://www.w3.org/TR/2001/REC-SVG-20010904/DTD/svg10.dtd">
<svg version="1.0" xmlns="http://www.w3.org/2000/svg"
 width="1005.000000pt" height="1005.000000pt" viewBox="0 0 1005.000000 1005.000000"
 preserveAspectRatio="xMidYMid meet">
<metadata>
Created by potrace 1.14, written by Peter Selinger 2001-2017
</metadata>
<g transform="translate(0.000000,1005.000000) scale(0.100000,-0.100000)"
fill="#000000" stroke="none">
<path d="M4768 9975 c-2 -2 -51 -6 -111 -10 -59 -3 -115 -8 -125 -9 -9 -2 -48
-7 -85 -11 -37 -3 -76 -8 -86 -10 -10 -2 -42 -6 -71 -10 -29 -4 -62 -9 -74
-11 -12 -2 -61 -11 -111 -19 -191 -33 -666 -163 -780 -214 -11 -5 -81 -33
-155 -62 -110 -44 -501 -231 -560 -269 -8 -5 -62 -37 -120 -71 -130 -76 -321
-206 -460 -312 -330 -252 -705 -630 -943 -952 -37 -49 -71 -96 -77 -102 -26
-31 -203 -308 -259 -405 -284 -494 -494 -1083 -581 -1626 -28 -177 -29 -179
-35 -252 -4 -36 -8 -71 -11 -78 -23 -74 -24 -819 0 -962 2 -14 7 -54 11 -90 3
-36 8 -74 10 -85 2 -11 7 -39 9 -63 5 -41 30 -189 41 -242 3 -14 7 -36 10 -50
6 -30 53 -228 60 -253 3 -9 7 -25 9 -35 3 -9 18 -62 35 -117 182 -604 471
-1152 870 -1655 42 -52 78 -97 81 -100 3 -3 39 -43 80 -90 130 -148 408 -419
517 -503 15 -12 37 -30 48 -40 34 -31 245 -191 330 -249 193 -132 464 -289
668 -386 516 -246 1132 -414 1682 -457 44 -4 100 -9 125 -11 60 -6 554 -6 605
0 22 3 76 8 120 11 78 6 123 10 195 20 19 3 53 7 75 9 45 6 107 15 139 22 11
2 37 7 56 10 29 4 106 21 320 69 8 2 15 4 15 5 0 1 7 3 15 5 67 14 285 80 381
115 46 17 91 33 99 35 15 3 80 29 115 45 11 5 70 30 130 56 157 66 353 167
560 288 122 72 325 210 455 309 364 278 683 602 959 972 251 336 418 628 605
1060 7 17 22 55 34 85 11 30 32 84 45 120 26 66 112 338 121 382 3 12 16 66
30 118 13 52 27 109 30 125 2 17 14 77 25 135 11 58 22 121 25 140 22 146 25
169 31 236 4 32 8 73 10 89 27 207 21 745 -10 975 -2 19 -7 58 -10 85 -3 28
-7 61 -10 75 -2 14 -6 45 -10 70 -87 608 -345 1295 -698 1855 -270 428 -663
874 -1032 1171 -33 26 -62 51 -65 54 -12 14 -245 183 -340 247 -353 236 -796
451 -1200 581 -112 36 -291 88 -338 97 -9 1 -44 10 -77 18 -33 9 -100 23 -150
32 -102 19 -120 23 -155 30 -14 2 -45 7 -70 10 -25 4 -56 8 -70 10 -25 4 -169
19 -285 31 -64 6 -612 14 -617 9z m517 -289 c66 -3 136 -8 155 -10 19 -3 60
-7 90 -11 69 -7 126 -15 165 -21 148 -23 323 -58 427 -85 46 -12 90 -23 98
-24 8 -2 15 -4 15 -5 0 -1 9 -3 20 -5 88 -17 440 -143 625 -225 665 -293 1298
-780 1745 -1345 22 -27 43 -54 48 -60 84 -103 280 -398 372 -560 78 -139 177
-341 230 -470 20 -49 41 -99 46 -110 5 -11 18 -47 29 -80 12 -33 25 -69 30
-80 33 -75 124 -397 156 -554 24 -115 24 -114 29 -146 3 -16 10 -55 15 -85 5
-30 12 -71 14 -90 3 -19 7 -55 10 -80 12 -91 15 -117 23 -220 10 -135 10 -586
0 -715 -9 -111 -13 -150 -27 -245 -5 -36 -12 -81 -14 -101 -9 -66 -57 -303
-77 -384 -11 -44 -22 -89 -25 -100 -17 -81 -111 -364 -175 -522 -175 -440
-428 -865 -733 -1233 -201 -242 -450 -484 -736 -713 -261 -210 -693 -462
-1035 -605 -114 -48 -363 -140 -395 -147 -8 -2 -44 -13 -80 -24 -111 -35 -339
-89 -480 -115 -128 -23 -164 -28 -277 -41 -27 -3 -59 -8 -73 -10 -153 -27
-763 -27 -975 0 -231 29 -249 32 -440 71 -143 29 -207 44 -290 68 -5 2 -23 6
-40 11 -296 76 -752 269 -1058 446 -78 46 -341 216 -373 242 -10 8 -61 47
-113 86 -234 176 -533 457 -706 666 -28 33 -53 62 -56 65 -4 3 -24 28 -44 55
-21 28 -41 52 -45 55 -7 5 -189 261 -232 325 -120 182 -289 502 -382 723 -114
272 -238 678 -272 892 -3 19 -9 51 -14 70 -5 19 -12 55 -15 80 -3 25 -8 56
-10 70 -8 52 -24 188 -30 255 -23 251 -23 638 0 845 2 19 6 64 10 100 3 36 8
76 10 90 2 14 7 43 10 65 3 23 7 52 10 65 6 33 23 126 30 170 3 19 11 53 17
75 5 22 11 45 12 50 69 339 257 832 452 1185 634 1149 1729 1982 2994 2280
157 37 295 63 390 75 25 3 54 7 65 9 11 2 49 7 85 10 36 4 76 9 90 11 14 2 79
7 145 11 66 3 121 7 122 7 4 4 329 -1 438 -7z"/>
<path d="M1113 6602 c-24 -2 -43 -6 -43 -8 0 -5 321 -535 492 -811 l69 -113
1212 0 1212 -1 93 -120 c63 -82 90 -124 84 -132 -5 -7 -48 -59 -95 -118 l-85
-105 -704 3 c-386 2 -857 4 -1045 6 l-342 2 46 -83 c25 -46 72 -129 104 -184
32 -55 59 -101 59 -104 0 -2 19 -36 43 -76 24 -40 46 -80 50 -88 4 -8 13 -24
20 -35 7 -11 39 -67 72 -125 33 -58 66 -117 75 -131 8 -14 31 -53 50 -87 l34
-61 96 4 c226 10 350 16 430 20 47 2 146 7 220 10 74 4 148 7 163 8 27 2 35
-9 144 -198 63 -110 129 -225 145 -255 17 -30 42 -72 55 -92 12 -21 23 -40 23
-43 0 -2 18 -34 40 -70 22 -36 40 -67 40 -69 0 -2 36 -65 80 -141 44 -76 80
-139 80 -140 0 -1 29 -52 64 -113 36 -61 76 -131 89 -154 13 -24 124 -218 247
-433 123 -214 232 -406 243 -425 10 -19 47 -82 80 -140 33 -58 65 -114 71
-125 32 -59 210 -365 211 -362 2 1 119 195 174 287 214 356 287 476 293 478 5
2 8 8 8 12 0 5 27 54 60 108 33 55 60 102 60 106 0 3 -73 126 -161 273 -89
148 -170 282 -179 298 -10 17 -124 208 -255 425 -131 217 -246 409 -255 425
-10 17 -56 93 -103 170 -47 77 -84 141 -83 143 2 2 69 3 149 4 l145 0 319 530
c418 697 378 624 356 656 -10 15 -23 36 -29 47 -52 94 -638 1112 -644 1118 -7
8 -3676 16 -3777 9z"/>
<path d="M5455 6600 c-11 -4 16 -57 102 -200 63 -107 123 -208 132 -225 29
-53 252 -429 270 -455 10 -14 20 -33 24 -42 6 -17 73 -18 1216 -18 l1209 0
169 286 c92 157 176 299 187 317 10 18 56 95 101 173 46 77 85 146 87 153 2
11 -329 13 -1740 15 -958 0 -1749 -1 -1757 -4z"/>
<path d="M5987 5192 c-27 -3 -45 -37 -334 -620 -168 -339 -306 -622 -306 -627
0 -6 18 -42 40 -80 23 -39 50 -86 60 -105 46 -80 328 -569 358 -620 18 -30 47
-80 63 -110 17 -30 34 -56 39 -57 4 -2 88 156 187 350 343 676 458 902 467
911 4 5 232 9 517 8 l510 0 13 26 c8 15 21 38 30 52 21 31 509 868 509 872 0
4 -2118 4 -2153 0z"/>
</g>
</svg>
